<svg width="375" height="144" viewBox="0 0 375 144" fill="none" xmlns="http://www.w3.org/2000/svg">
<path fill-rule="evenodd" clip-rule="evenodd" d="M242.086 252.61L179.342 215.683L264.228 69.9871L326.971 106.914L242.086 252.61Z" fill="#F08715"/>
<path fill-rule="evenodd" clip-rule="evenodd" d="M1.09355 154.579V311.661H24.3759L122.477 142.236L37.4096 91.8581L1.09355 154.579Z" fill="#56B9A1"/>
<path fill-rule="evenodd" clip-rule="evenodd" d="M194.011 174.968L133.413 139.588L153.738 104.981L214.335 140.36L194.011 174.968Z" fill="#B71277"/>
<path fill-rule="evenodd" clip-rule="evenodd" d="M249.329 256.342L394.11 339L697.684 303.898L334.271 110.448L249.329 256.342Z" fill="#EA5D48"/>
<path fill-rule="evenodd" clip-rule="evenodd" d="M0 63.11L195.58 174.941L223.084 127.945L0 0V63.11Z" fill="#DF3378"/>
<path fill-rule="evenodd" clip-rule="evenodd" d="M1.09355 128.231L6.04303 131.226L30.6194 87.8543L1.09355 69.9871V128.231Z" fill="#EA5D48"/>
</svg>
