<svg id="Camada_1" data-name="Camada 1" xmlns="http://www.w3.org/2000/svg" viewBox="0 0 3000 3000"><defs><style>.cls-1{fill:#fff;}</style></defs><title>no_customization_Laura_Barros</title><rect class="cls-1" width="3000" height="3000"/><rect x="609" y="177" width="108" height="54"/><rect x="825" y="177" width="378" height="54"/><rect x="1257" y="177" width="54" height="54"/><rect x="1365" y="177" width="54" height="54"/><rect x="1473" y="177" width="108" height="54"/><rect x="1635" y="177" width="270" height="54"/><rect x="2067" y="177" width="54" height="54"/><rect x="2337" y="177" width="54" height="54"/><rect x="609" y="231" width="54" height="54"/><rect x="717" y="231" width="270" height="54"/><rect x="1149" y="231" width="108" height="54"/><rect x="1365" y="231" width="54" height="54"/><rect x="1473" y="231" width="108" height="54"/><rect x="1743" y="231" width="108" height="54"/><rect x="1905" y="231" width="54" height="54"/><rect x="2013" y="231" width="162" height="54"/><rect x="2229" y="231" width="162" height="54"/><rect x="609" y="285" width="108" height="54"/><rect x="879" y="285" width="54" height="54"/><rect x="1041" y="285" width="54" height="54"/><rect x="1203" y="285" width="54" height="54"/><rect x="1527" y="285" width="54" height="54"/><rect x="1635" y="285" width="54" height="54"/><rect x="2013" y="285" width="54" height="54"/><rect x="2121" y="285" width="108" height="54"/><rect x="2283" y="285" width="108" height="54"/><rect x="609" y="339" width="54" height="54"/><rect x="717" y="339" width="108" height="54"/><rect x="987" y="339" width="162" height="54"/><rect x="1311" y="339" width="54" height="54"/><rect x="1419" y="339" width="54" height="54"/><rect x="1635" y="339" width="54" height="54"/><rect x="1743" y="339" width="216" height="54"/><rect x="2121" y="339" width="54" height="54"/><rect x="2283" y="339" width="54" height="54"/><rect x="663" y="393" width="54" height="54"/><rect x="771" y="393" width="108" height="54"/><rect x="933" y="393" width="270" height="54"/><rect x="1311" y="393" width="324" height="54"/><rect x="1797" y="393" width="162" height="54"/><rect x="609" y="447" width="270" height="54"/><rect x="933" y="447" width="54" height="54"/><rect x="1041" y="447" width="216" height="54"/><rect x="1311" y="447" width="108" height="54"/><rect x="1581" y="447" width="54" height="54"/><rect x="1743" y="447" width="108" height="54"/><rect x="1905" y="447" width="378" height="54"/><rect x="609" y="501" width="54" height="54"/><rect x="717" y="501" width="54" height="54"/><rect x="825" y="501" width="54" height="54"/><rect x="933" y="501" width="54" height="54"/><rect x="1041" y="501" width="54" height="54"/><rect x="1149" y="501" width="54" height="54"/><rect x="1257" y="501" width="54" height="54"/><rect x="1365" y="501" width="54" height="54"/><rect x="1473" y="501" width="54" height="54"/><rect x="1581" y="501" width="54" height="54"/><rect x="1689" y="501" width="54" height="54"/><rect x="1797" y="501" width="54" height="54"/><rect x="1905" y="501" width="54" height="54"/><rect x="2013" y="501" width="54" height="54"/><rect x="2121" y="501" width="54" height="54"/><rect x="2229" y="501" width="54" height="54"/><rect x="2337" y="501" width="54" height="54"/><rect x="663" y="555" width="108" height="54"/><rect x="825" y="555" width="54" height="54"/><rect x="1149" y="555" width="270" height="54"/><rect x="1581" y="555" width="216" height="54"/><rect x="1905" y="555" width="54" height="54"/><rect x="2013" y="555" width="54" height="54"/><rect x="2175" y="555" width="54" height="54"/><rect x="2283" y="555" width="108" height="54"/><rect x="177" y="609" width="108" height="54"/><rect x="393" y="609" width="162" height="54"/><rect x="771" y="609" width="54" height="54"/><rect x="987" y="609" width="54" height="54"/><rect x="1095" y="609" width="108" height="54"/><rect x="1365" y="609" width="324" height="54"/><rect x="2013" y="609" width="324" height="54"/><rect x="2499" y="609" width="54" height="54"/><rect x="2607" y="609" width="216" height="54"/><rect x="609" y="663" width="162" height="54"/><rect x="825" y="663" width="216" height="54"/><rect x="1149" y="663" width="108" height="54"/><rect x="1311" y="663" width="54" height="54"/><rect x="1419" y="663" width="108" height="54"/><rect x="1743" y="663" width="54" height="54"/><rect x="1851" y="663" width="54" height="54"/><rect x="2067" y="663" width="54" height="54"/><rect x="2337" y="663" width="54" height="54"/><rect x="2499" y="663" width="162" height="54"/><rect x="2769" y="663" width="54" height="54"/><rect x="231" y="717" width="324" height="54"/><rect x="609" y="717" width="54" height="54"/><rect x="771" y="717" width="324" height="54"/><rect x="1149" y="717" width="54" height="54"/><rect x="1257" y="717" width="54" height="54"/><rect x="1365" y="717" width="108" height="54"/><rect x="1527" y="717" width="108" height="54"/><rect x="1689" y="717" width="216" height="54"/><rect x="2013" y="717" width="54" height="54"/><rect x="2229" y="717" width="162" height="54"/><rect x="2499" y="717" width="54" height="54"/><rect x="2607" y="717" width="108" height="54"/><rect x="231" y="771" width="216" height="54"/><rect x="555" y="771" width="54" height="54"/><rect x="825" y="771" width="54" height="54"/><rect x="933" y="771" width="54" height="54"/><rect x="1041" y="771" width="216" height="54"/><rect x="1365" y="771" width="54" height="54"/><rect x="1527" y="771" width="54" height="54"/><rect x="1905" y="771" width="270" height="54"/><rect x="2337" y="771" width="108" height="54"/><rect x="2661" y="771" width="54" height="54"/><rect x="2769" y="771" width="54" height="54"/><rect x="231" y="825" width="54" height="54"/><rect x="447" y="825" width="162" height="54"/><rect x="663" y="825" width="54" height="54"/><rect x="771" y="825" width="108" height="54"/><rect x="987" y="825" width="54" height="54"/><rect x="1095" y="825" width="54" height="54"/><rect x="1257" y="825" width="54" height="54"/><rect x="1419" y="825" width="108" height="54"/><rect x="1581" y="825" width="54" height="54"/><rect x="1743" y="825" width="54" height="54"/><rect x="1851" y="825" width="54" height="54"/><rect x="1959" y="825" width="108" height="54"/><rect x="2121" y="825" width="54" height="54"/><rect x="2337" y="825" width="54" height="54"/><rect x="2445" y="825" width="54" height="54"/><rect x="2553" y="825" width="162" height="54"/><rect x="2769" y="825" width="54" height="54"/><rect x="285" y="879" width="108" height="54"/><rect x="447" y="879" width="54" height="54"/><rect x="555" y="879" width="54" height="54"/><rect x="663" y="879" width="108" height="54"/><rect x="825" y="879" width="162" height="54"/><rect x="1149" y="879" width="162" height="54"/><rect x="1581" y="879" width="270" height="54"/><rect x="2013" y="879" width="108" height="54"/><rect x="2175" y="879" width="216" height="54"/><rect x="2499" y="879" width="108" height="54"/><rect x="2715" y="879" width="108" height="54"/><rect x="285" y="933" width="54" height="54"/><rect x="393" y="933" width="162" height="54"/><rect x="771" y="933" width="108" height="54"/><rect x="1041" y="933" width="54" height="54"/><rect x="1203" y="933" width="54" height="54"/><rect x="1365" y="933" width="54" height="54"/><rect x="1581" y="933" width="54" height="54"/><rect x="1689" y="933" width="54" height="54"/><rect x="2175" y="933" width="378" height="54"/><rect x="231" y="987" width="108" height="54"/><rect x="447" y="987" width="54" height="54"/><rect x="555" y="987" width="54" height="54"/><rect x="663" y="987" width="54" height="54"/><rect x="771" y="987" width="432" height="54"/><rect x="1311" y="987" width="162" height="54"/><rect x="1527" y="987" width="54" height="54"/><rect x="1635" y="987" width="54" height="54"/><rect x="1851" y="987" width="54" height="54"/><rect x="2013" y="987" width="54" height="54"/><rect x="2175" y="987" width="54" height="54"/><rect x="2337" y="987" width="54" height="54"/><rect x="2499" y="987" width="54" height="54"/><rect x="2607" y="987" width="162" height="54"/><rect x="177" y="1041" width="54" height="54"/><rect x="285" y="1041" width="54" height="54"/><rect x="501" y="1041" width="54" height="54"/><rect x="609" y="1041" width="108" height="54"/><rect x="771" y="1041" width="162" height="54"/><rect x="987" y="1041" width="108" height="54"/><rect x="1203" y="1041" width="54" height="54"/><rect x="1311" y="1041" width="54" height="54"/><rect x="1419" y="1041" width="54" height="54"/><rect x="1581" y="1041" width="162" height="54"/><rect x="1851" y="1041" width="54" height="54"/><rect x="2013" y="1041" width="54" height="54"/><rect x="2121" y="1041" width="54" height="54"/><rect x="2229" y="1041" width="162" height="54"/><rect x="2445" y="1041" width="162" height="54"/><rect x="2715" y="1041" width="108" height="54"/><rect x="177" y="1095" width="54" height="54"/><rect x="285" y="1095" width="216" height="54"/><rect x="555" y="1095" width="108" height="54"/><rect x="825" y="1095" width="108" height="54"/><rect x="1095" y="1095" width="270" height="54"/><rect x="1527" y="1095" width="108" height="54"/><rect x="1797" y="1095" width="108" height="54"/><rect x="2229" y="1095" width="54" height="54"/><rect x="2337" y="1095" width="108" height="54"/><rect x="2499" y="1095" width="162" height="54"/><rect x="2715" y="1095" width="54" height="54"/><rect x="339" y="1149" width="54" height="54"/><rect x="501" y="1149" width="54" height="54"/><rect x="609" y="1149" width="54" height="54"/><rect x="717" y="1149" width="54" height="54"/><rect x="825" y="1149" width="54" height="54"/><rect x="987" y="1149" width="162" height="54"/><rect x="1203" y="1149" width="216" height="54"/><rect x="1473" y="1149" width="54" height="54"/><rect x="1581" y="1149" width="54" height="54"/><rect x="1689" y="1149" width="54" height="54"/><rect x="1797" y="1149" width="108" height="54"/><rect x="1959" y="1149" width="54" height="54"/><rect x="2391" y="1149" width="54" height="54"/><rect x="2499" y="1149" width="54" height="54"/><rect x="2607" y="1149" width="162" height="54"/><rect x="231" y="1203" width="54" height="54"/><rect x="339" y="1203" width="54" height="54"/><rect x="717" y="1203" width="108" height="54"/><rect x="879" y="1203" width="54" height="54"/><rect x="1041" y="1203" width="54" height="54"/><rect x="1203" y="1203" width="54" height="54"/><rect x="1311" y="1203" width="54" height="54"/><rect x="1419" y="1203" width="162" height="54"/><rect x="1905" y="1203" width="54" height="54"/><rect x="2013" y="1203" width="162" height="54"/><rect x="2283" y="1203" width="108" height="54"/><rect x="2553" y="1203" width="108" height="54"/><rect x="2769" y="1203" width="54" height="54"/><rect x="177" y="1257" width="162" height="54"/><rect x="501" y="1257" width="54" height="54"/><rect x="717" y="1257" width="270" height="54"/><rect x="1149" y="1257" width="216" height="54"/><rect x="1419" y="1257" width="54" height="54"/><rect x="1527" y="1257" width="270" height="54"/><rect x="2121" y="1257" width="108" height="54"/><rect x="2283" y="1257" width="378" height="54"/><rect x="2769" y="1257" width="54" height="54"/><rect x="177" y="1311" width="54" height="54"/><rect x="339" y="1311" width="162" height="54"/><rect x="555" y="1311" width="162" height="54"/><rect x="771" y="1311" width="54" height="54"/><rect x="933" y="1311" width="270" height="54"/><rect x="1311" y="1311" width="108" height="54"/><rect x="1527" y="1311" width="108" height="54"/><rect x="1689" y="1311" width="54" height="54"/><rect x="1797" y="1311" width="324" height="54"/><rect x="2283" y="1311" width="216" height="54"/><rect x="2553" y="1311" width="54" height="54"/><rect x="177" y="1365" width="108" height="54"/><rect x="393" y="1365" width="432" height="54"/><rect x="987" y="1365" width="54" height="54"/><rect x="1257" y="1365" width="54" height="54"/><rect x="1365" y="1365" width="270" height="54"/><rect x="1689" y="1365" width="216" height="54"/><rect x="1959" y="1365" width="108" height="54"/><rect x="2229" y="1365" width="378" height="54"/><rect x="2715" y="1365" width="54" height="54"/><rect x="177" y="1419" width="108" height="54"/><rect x="339" y="1419" width="108" height="54"/><rect x="609" y="1419" width="54" height="54"/><rect x="717" y="1419" width="108" height="54"/><rect x="933" y="1419" width="54" height="54"/><rect x="1095" y="1419" width="324" height="54"/><rect x="1581" y="1419" width="54" height="54"/><rect x="1689" y="1419" width="54" height="54"/><rect x="1851" y="1419" width="108" height="54"/><rect x="2013" y="1419" width="108" height="54"/><rect x="2175" y="1419" width="54" height="54"/><rect x="2283" y="1419" width="108" height="54"/><rect x="2553" y="1419" width="216" height="54"/><rect x="231" y="1473" width="54" height="54"/><rect x="339" y="1473" width="108" height="54"/><rect x="501" y="1473" width="54" height="54"/><rect x="609" y="1473" width="108" height="54"/><rect x="771" y="1473" width="162" height="54"/><rect x="987" y="1473" width="162" height="54"/><rect x="1257" y="1473" width="162" height="54"/><rect x="1473" y="1473" width="54" height="54"/><rect x="1581" y="1473" width="108" height="54"/><rect x="1905" y="1473" width="54" height="54"/><rect x="2013" y="1473" width="108" height="54"/><rect x="2175" y="1473" width="216" height="54"/><rect x="2445" y="1473" width="54" height="54"/><rect x="2553" y="1473" width="270" height="54"/><rect x="177" y="1527" width="54" height="54"/><rect x="285" y="1527" width="54" height="54"/><rect x="393" y="1527" width="54" height="54"/><rect x="609" y="1527" width="162" height="54"/><rect x="825" y="1527" width="54" height="54"/><rect x="1041" y="1527" width="54" height="54"/><rect x="1203" y="1527" width="216" height="54"/><rect x="1581" y="1527" width="54" height="54"/><rect x="1743" y="1527" width="54" height="54"/><rect x="2229" y="1527" width="54" height="54"/><rect x="2337" y="1527" width="54" height="54"/><rect x="2553" y="1527" width="108" height="54"/><rect x="177" y="1581" width="54" height="54"/><rect x="393" y="1581" width="270" height="54"/><rect x="717" y="1581" width="270" height="54"/><rect x="1149" y="1581" width="54" height="54"/><rect x="1257" y="1581" width="378" height="54"/><rect x="1689" y="1581" width="54" height="54"/><rect x="1797" y="1581" width="108" height="54"/><rect x="2013" y="1581" width="54" height="54"/><rect x="2175" y="1581" width="54" height="54"/><rect x="2337" y="1581" width="432" height="54"/><rect x="177" y="1635" width="108" height="54"/><rect x="339" y="1635" width="54" height="54"/><rect x="447" y="1635" width="54" height="54"/><rect x="663" y="1635" width="216" height="54"/><rect x="933" y="1635" width="324" height="54"/><rect x="1311" y="1635" width="108" height="54"/><rect x="1527" y="1635" width="162" height="54"/><rect x="1905" y="1635" width="54" height="54"/><rect x="2013" y="1635" width="54" height="54"/><rect x="2337" y="1635" width="216" height="54"/><rect x="2769" y="1635" width="54" height="54"/><rect x="177" y="1689" width="54" height="54"/><rect x="393" y="1689" width="54" height="54"/><rect x="501" y="1689" width="162" height="54"/><rect x="717" y="1689" width="54" height="54"/><rect x="987" y="1689" width="54" height="54"/><rect x="1095" y="1689" width="54" height="54"/><rect x="1257" y="1689" width="54" height="54"/><rect x="1365" y="1689" width="54" height="54"/><rect x="1473" y="1689" width="54" height="54"/><rect x="1581" y="1689" width="54" height="54"/><rect x="1905" y="1689" width="54" height="54"/><rect x="2013" y="1689" width="54" height="54"/><rect x="2121" y="1689" width="54" height="54"/><rect x="2283" y="1689" width="54" height="54"/><rect x="2445" y="1689" width="54" height="54"/><rect x="2553" y="1689" width="54" height="54"/><rect x="2661" y="1689" width="54" height="54"/><rect x="2769" y="1689" width="54" height="54"/><rect x="231" y="1743" width="162" height="54"/><rect x="555" y="1743" width="108" height="54"/><rect x="717" y="1743" width="108" height="54"/><rect x="879" y="1743" width="108" height="54"/><rect x="1149" y="1743" width="162" height="54"/><rect x="1365" y="1743" width="54" height="54"/><rect x="1473" y="1743" width="270" height="54"/><rect x="1797" y="1743" width="162" height="54"/><rect x="2175" y="1743" width="108" height="54"/><rect x="2337" y="1743" width="108" height="54"/><rect x="2715" y="1743" width="108" height="54"/><rect x="231" y="1797" width="54" height="54"/><rect x="393" y="1797" width="54" height="54"/><rect x="501" y="1797" width="54" height="54"/><rect x="663" y="1797" width="162" height="54"/><rect x="1041" y="1797" width="54" height="54"/><rect x="1203" y="1797" width="54" height="54"/><rect x="1311" y="1797" width="54" height="54"/><rect x="1419" y="1797" width="54" height="54"/><rect x="1527" y="1797" width="54" height="54"/><rect x="1689" y="1797" width="54" height="54"/><rect x="1851" y="1797" width="54" height="54"/><rect x="2013" y="1797" width="54" height="54"/><rect x="2283" y="1797" width="54" height="54"/><rect x="2391" y="1797" width="108" height="54"/><rect x="2769" y="1797" width="54" height="54"/><rect x="285" y="1851" width="216" height="54"/><rect x="663" y="1851" width="108" height="54"/><rect x="879" y="1851" width="324" height="54"/><rect x="1311" y="1851" width="162" height="54"/><rect x="1527" y="1851" width="162" height="54"/><rect x="2013" y="1851" width="216" height="54"/><rect x="2283" y="1851" width="108" height="54"/><rect x="2445" y="1851" width="108" height="54"/><rect x="2607" y="1851" width="108" height="54"/><rect x="339" y="1905" width="270" height="54"/><rect x="717" y="1905" width="108" height="54"/><rect x="933" y="1905" width="54" height="54"/><rect x="1095" y="1905" width="108" height="54"/><rect x="1257" y="1905" width="54" height="54"/><rect x="1419" y="1905" width="108" height="54"/><rect x="1581" y="1905" width="54" height="54"/><rect x="1689" y="1905" width="54" height="54"/><rect x="1851" y="1905" width="216" height="54"/><rect x="2229" y="1905" width="108" height="54"/><rect x="2391" y="1905" width="108" height="54"/><rect x="2553" y="1905" width="108" height="54"/><rect x="177" y="1959" width="270" height="54"/><rect x="609" y="1959" width="108" height="54"/><rect x="771" y="1959" width="108" height="54"/><rect x="933" y="1959" width="216" height="54"/><rect x="1365" y="1959" width="54" height="54"/><rect x="1527" y="1959" width="108" height="54"/><rect x="1743" y="1959" width="54" height="54"/><rect x="1851" y="1959" width="108" height="54"/><rect x="2067" y="1959" width="54" height="54"/><rect x="2175" y="1959" width="108" height="54"/><rect x="2337" y="1959" width="54" height="54"/><rect x="2445" y="1959" width="162" height="54"/><rect x="2715" y="1959" width="108" height="54"/><rect x="177" y="2013" width="378" height="54"/><rect x="663" y="2013" width="54" height="54"/><rect x="987" y="2013" width="162" height="54"/><rect x="1311" y="2013" width="216" height="54"/><rect x="1635" y="2013" width="108" height="54"/><rect x="1851" y="2013" width="54" height="54"/><rect x="1959" y="2013" width="54" height="54"/><rect x="2067" y="2013" width="54" height="54"/><rect x="2229" y="2013" width="162" height="54"/><rect x="2715" y="2013" width="108" height="54"/><rect x="177" y="2067" width="54" height="54"/><rect x="285" y="2067" width="54" height="54"/><rect x="447" y="2067" width="54" height="54"/><rect x="717" y="2067" width="54" height="54"/><rect x="879" y="2067" width="54" height="54"/><rect x="1041" y="2067" width="54" height="54"/><rect x="1203" y="2067" width="54" height="54"/><rect x="1311" y="2067" width="54" height="54"/><rect x="1527" y="2067" width="54" height="54"/><rect x="1635" y="2067" width="54" height="54"/><rect x="1743" y="2067" width="54" height="54"/><rect x="1905" y="2067" width="54" height="54"/><rect x="2013" y="2067" width="162" height="54"/><rect x="2337" y="2067" width="54" height="54"/><rect x="2499" y="2067" width="54" height="54"/><rect x="2607" y="2067" width="54" height="54"/><rect x="2769" y="2067" width="54" height="54"/><rect x="177" y="2121" width="216" height="54"/><rect x="447" y="2121" width="108" height="54"/><rect x="609" y="2121" width="54" height="54"/><rect x="717" y="2121" width="54" height="54"/><rect x="825" y="2121" width="162" height="54"/><rect x="1149" y="2121" width="162" height="54"/><rect x="1365" y="2121" width="54" height="54"/><rect x="1473" y="2121" width="162" height="54"/><rect x="1851" y="2121" width="54" height="54"/><rect x="1959" y="2121" width="108" height="54"/><rect x="2121" y="2121" width="162" height="54"/><rect x="2337" y="2121" width="162" height="54"/><rect x="2553" y="2121" width="54" height="54"/><rect x="2661" y="2121" width="54" height="54"/><rect x="2769" y="2121" width="54" height="54"/><rect x="177" y="2175" width="108" height="54"/><rect x="393" y="2175" width="54" height="54"/><rect x="555" y="2175" width="54" height="54"/><rect x="771" y="2175" width="54" height="54"/><rect x="933" y="2175" width="270" height="54"/><rect x="1311" y="2175" width="54" height="54"/><rect x="1419" y="2175" width="108" height="54"/><rect x="1635" y="2175" width="108" height="54"/><rect x="1797" y="2175" width="216" height="54"/><rect x="2121" y="2175" width="108" height="54"/><rect x="2337" y="2175" width="162" height="54"/><rect x="2553" y="2175" width="54" height="54"/><rect x="2769" y="2175" width="54" height="54"/><rect x="231" y="2229" width="54" height="54"/><rect x="447" y="2229" width="270" height="54"/><rect x="771" y="2229" width="108" height="54"/><rect x="987" y="2229" width="54" height="54"/><rect x="1095" y="2229" width="54" height="54"/><rect x="1257" y="2229" width="108" height="54"/><rect x="1419" y="2229" width="54" height="54"/><rect x="1581" y="2229" width="54" height="54"/><rect x="1689" y="2229" width="108" height="54"/><rect x="2013" y="2229" width="54" height="54"/><rect x="2229" y="2229" width="108" height="54"/><rect x="231" y="2283" width="162" height="54"/><rect x="717" y="2283" width="54" height="54"/><rect x="825" y="2283" width="162" height="54"/><rect x="1095" y="2283" width="54" height="54"/><rect x="1203" y="2283" width="108" height="54"/><rect x="1365" y="2283" width="54" height="54"/><rect x="1581" y="2283" width="108" height="54"/><rect x="1743" y="2283" width="54" height="54"/><rect x="1851" y="2283" width="108" height="54"/><rect x="2013" y="2283" width="108" height="54"/><rect x="2175" y="2283" width="54" height="54"/><rect x="2337" y="2283" width="54" height="54"/><rect x="2445" y="2283" width="108" height="54"/><rect x="2607" y="2283" width="216" height="54"/><rect x="177" y="2337" width="162" height="54"/><rect x="501" y="2337" width="54" height="54"/><rect x="609" y="2337" width="108" height="54"/><rect x="771" y="2337" width="54" height="54"/><rect x="933" y="2337" width="108" height="54"/><rect x="1203" y="2337" width="54" height="54"/><rect x="1311" y="2337" width="324" height="54"/><rect x="1851" y="2337" width="432" height="54"/><rect x="2337" y="2337" width="270" height="54"/><rect x="609" y="2391" width="108" height="54"/><rect x="771" y="2391" width="108" height="54"/><rect x="933" y="2391" width="108" height="54"/><rect x="1203" y="2391" width="54" height="54"/><rect x="1311" y="2391" width="108" height="54"/><rect x="1581" y="2391" width="216" height="54"/><rect x="2067" y="2391" width="108" height="54"/><rect x="2283" y="2391" width="108" height="54"/><rect x="2553" y="2391" width="108" height="54"/><rect x="2715" y="2391" width="108" height="54"/><rect x="663" y="2445" width="108" height="54"/><rect x="825" y="2445" width="270" height="54"/><rect x="1149" y="2445" width="270" height="54"/><rect x="1473" y="2445" width="54" height="54"/><rect x="1581" y="2445" width="54" height="54"/><rect x="1689" y="2445" width="216" height="54"/><rect x="1959" y="2445" width="54" height="54"/><rect x="2229" y="2445" width="162" height="54"/><rect x="2445" y="2445" width="54" height="54"/><rect x="2553" y="2445" width="54" height="54"/><rect x="2661" y="2445" width="162" height="54"/><rect x="609" y="2499" width="54" height="54"/><rect x="717" y="2499" width="108" height="54"/><rect x="933" y="2499" width="54" height="54"/><rect x="1041" y="2499" width="162" height="54"/><rect x="1365" y="2499" width="54" height="54"/><rect x="1581" y="2499" width="54" height="54"/><rect x="1689" y="2499" width="54" height="54"/><rect x="1851" y="2499" width="54" height="54"/><rect x="2013" y="2499" width="216" height="54"/><rect x="2337" y="2499" width="54" height="54"/><rect x="2553" y="2499" width="54" height="54"/><rect x="2661" y="2499" width="54" height="54"/><rect x="2769" y="2499" width="54" height="54"/><rect x="609" y="2553" width="54" height="54"/><rect x="771" y="2553" width="108" height="54"/><rect x="987" y="2553" width="54" height="54"/><rect x="1095" y="2553" width="54" height="54"/><rect x="1257" y="2553" width="378" height="54"/><rect x="1797" y="2553" width="270" height="54"/><rect x="2175" y="2553" width="108" height="54"/><rect x="2337" y="2553" width="270" height="54"/><rect x="2661" y="2553" width="54" height="54"/><rect x="2769" y="2553" width="54" height="54"/><rect x="717" y="2607" width="54" height="54"/><rect x="825" y="2607" width="162" height="54"/><rect x="1149" y="2607" width="162" height="54"/><rect x="1419" y="2607" width="54" height="54"/><rect x="1581" y="2607" width="54" height="54"/><rect x="1689" y="2607" width="54" height="54"/><rect x="1797" y="2607" width="108" height="54"/><rect x="2067" y="2607" width="54" height="54"/><rect x="2283" y="2607" width="216" height="54"/><rect x="2715" y="2607" width="108" height="54"/><rect x="1041" y="2661" width="54" height="54"/><rect x="1203" y="2661" width="54" height="54"/><rect x="1365" y="2661" width="54" height="54"/><rect x="1527" y="2661" width="54" height="54"/><rect x="1689" y="2661" width="216" height="54"/><rect x="1959" y="2661" width="54" height="54"/><rect x="2067" y="2661" width="54" height="54"/><rect x="2229" y="2661" width="54" height="54"/><rect x="2607" y="2661" width="162" height="54"/><rect x="609" y="2715" width="216" height="54"/><rect x="879" y="2715" width="216" height="54"/><rect x="1311" y="2715" width="108" height="54"/><rect x="1635" y="2715" width="54" height="54"/><rect x="1851" y="2715" width="108" height="54"/><rect x="2013" y="2715" width="54" height="54"/><rect x="2175" y="2715" width="54" height="54"/><rect x="2283" y="2715" width="162" height="54"/><rect x="2607" y="2715" width="54" height="54"/><rect x="2769" y="2715" width="54" height="54"/><rect x="609" y="2769" width="54" height="54"/><rect x="879" y="2769" width="108" height="54"/><rect x="1095" y="2769" width="108" height="54"/><rect x="1257" y="2769" width="108" height="54"/><rect x="1419" y="2769" width="162" height="54"/><rect x="2013" y="2769" width="324" height="54"/><rect x="2553" y="2769" width="54" height="54"/><rect x="2661" y="2769" width="162" height="54"/><rect x="177" y="177" width="378" height="54"/><rect x="177" y="231" width="54" height="270"/><rect x="501" y="231" width="54" height="270"/><rect x="177" y="501" width="378" height="54"/><rect x="177" y="177" width="378" height="54"/><rect x="177" y="231" width="54" height="54"/><rect x="501" y="231" width="54" height="54"/><rect x="177" y="285" width="54" height="54"/><rect x="501" y="285" width="54" height="54"/><rect x="177" y="339" width="54" height="54"/><rect x="501" y="339" width="54" height="54"/><rect x="177" y="393" width="54" height="54"/><rect x="501" y="393" width="54" height="54"/><rect x="177" y="447" width="54" height="54"/><rect x="501" y="447" width="54" height="54"/><rect x="177" y="501" width="378" height="54"/><rect x="285" y="285" width="162" height="162"/><rect x="2445" y="177" width="378" height="54"/><rect x="2445" y="231" width="54" height="270"/><rect x="2769" y="231" width="54" height="270"/><rect x="2445" y="501" width="378" height="54"/><rect x="2445" y="177" width="378" height="54"/><rect x="2445" y="231" width="54" height="54"/><rect x="2769" y="231" width="54" height="54"/><rect x="2445" y="285" width="54" height="54"/><rect x="2769" y="285" width="54" height="54"/><rect x="2445" y="339" width="54" height="54"/><rect x="2769" y="339" width="54" height="54"/><rect x="2445" y="393" width="54" height="54"/><rect x="2769" y="393" width="54" height="54"/><rect x="2445" y="447" width="54" height="54"/><rect x="2769" y="447" width="54" height="54"/><rect x="2445" y="501" width="378" height="54"/><rect x="2553" y="285" width="162" height="162"/><rect x="177" y="2445" width="378" height="54"/><rect x="177" y="2499" width="54" height="270"/><rect x="501" y="2499" width="54" height="270"/><rect x="177" y="2769" width="378" height="54"/><rect x="177" y="2445" width="378" height="54"/><rect x="177" y="2499" width="54" height="54"/><rect x="501" y="2499" width="54" height="54"/><rect x="177" y="2553" width="54" height="54"/><rect x="501" y="2553" width="54" height="54"/><rect x="177" y="2607" width="54" height="54"/><rect x="501" y="2607" width="54" height="54"/><rect x="177" y="2661" width="54" height="54"/><rect x="501" y="2661" width="54" height="54"/><rect x="177" y="2715" width="54" height="54"/><rect x="501" y="2715" width="54" height="54"/><rect x="177" y="2769" width="378" height="54"/><rect x="285" y="2553" width="162" height="162"/></svg>