<svg width="123" height="34" viewBox="0 0 123 34" fill="none" xmlns="http://www.w3.org/2000/svg">
<g clip-path="url(#clip0)">
<path d="M121.63 33.2148C119.903 33.4503 117.704 34 111.187 34C104.042 34 98.545 32.1155 98.545 22.7714V11.2286C98.545 1.88453 104.12 0 111.187 0C117.704 0 119.824 0.471132 121.63 0.785219C122.416 0.863741 122.73 1.17783 122.73 1.96305V5.49654C122.73 6.12471 122.259 6.59584 121.63 6.59584H110.48C107.261 6.59584 106.162 7.69515 106.162 11.3072V13.5058H121.002C121.63 13.5058 122.102 13.9769 122.102 14.6051V18.5312C122.102 19.1594 121.63 19.6305 121.002 19.6305H106.162V22.8499C106.162 26.4619 107.339 27.5612 110.48 27.5612H121.63C122.259 27.5612 122.73 28.0323 122.73 28.6605V32.194C122.73 32.9007 122.494 33.1363 121.63 33.2148Z" fill="black"/>
<path d="M57.164 1.88452L51.746 32.2725C51.6674 32.8222 51.1963 33.2933 50.6467 33.2933H50.097C49.6259 33.2933 49.3118 32.9007 49.3118 32.4296C49.3118 32.351 49.3118 32.2725 49.3118 32.194L54.7298 1.806C54.8868 1.33487 55.2794 0.785217 55.8291 0.785217H56.3788C56.8499 0.785217 57.164 1.17783 57.164 1.64896C57.164 1.72748 57.164 1.806 57.164 1.88452Z" fill="black"/>
<path d="M43.3441 1.72748L38.8684 28.8961C38.3972 32.351 36.7483 33.3718 33.9215 33.3718H30.9376C28.5035 33.3718 27.1686 32.194 26.3834 28.9746L22.0647 15.3118C21.9861 14.8406 21.9861 14.6836 21.7506 14.6836C21.515 14.6836 21.515 14.7621 21.358 15.3118L17.0393 28.9746C16.254 32.194 14.9192 33.3718 12.485 33.3718H9.50116C6.67437 33.3718 5.0254 32.351 4.55427 28.8961L0 1.72748C0 1.72748 0 1.64896 0 1.57044C0 1.09931 0.471132 0.785217 0.942263 0.785217H6.75289C7.22402 0.785217 7.61663 1.17783 7.69515 1.806L11.0716 25.8337C11.1501 26.3048 11.1501 26.6189 11.3072 26.6189C11.4642 26.6189 11.5427 26.3048 11.6212 25.8337L16.3326 11.0716C16.6467 9.73672 17.4319 8.63741 19.7875 8.63741H23.5566C25.9122 8.63741 26.6975 9.81524 27.0115 11.0716L31.7229 25.8337C31.8014 26.3048 31.8014 26.6189 32.037 26.6189C32.2725 26.6189 32.2725 26.3048 32.2725 25.8337L35.5704 1.806C35.7275 1.17783 36.1201 0.785217 36.5912 0.785217H42.4018C42.873 0.785217 43.3441 1.02078 43.3441 1.57044C43.3441 1.64896 43.3441 1.72748 43.3441 1.72748Z" fill="black"/>
<path d="M90.3002 0.785217H89.6721C89.1224 0.785217 88.7298 1.25635 88.6513 1.806L83.6259 30.4665C83.5473 30.7021 83.3118 30.9376 83.2333 30.9376C83.2333 30.9376 83.2333 30.9376 83.1547 30.9376C82.9977 30.9376 82.9192 30.7806 82.9192 30.545L73.7321 2.5127C73.418 1.57044 72.7113 0.785217 71.2194 0.785217C71.1409 0.785217 71.0624 0.785217 70.9838 0.785217H70.9053C69.806 0.863739 68.5497 1.64896 68.157 3.45496L63.0531 32.194C63.0531 32.2725 63.0531 32.2725 63.0531 32.4296C63.0531 32.9007 63.3672 33.2933 63.8383 33.2933H64.388C64.9376 33.2933 65.4088 32.8222 65.4873 32.2725L70.5912 3.53349C70.6698 3.29792 70.8268 3.14088 70.9053 3.14088C70.9053 3.14088 70.9053 3.14088 70.9838 3.14088C70.9838 3.14088 70.9838 3.14088 71.0624 3.14088C71.2979 3.14088 71.455 3.29792 71.5335 3.53349L80.5635 31.5658C81.0346 32.9792 81.7413 33.3718 83.0762 33.3718C84.4896 33.3718 85.6674 32.351 85.9815 30.6236L91.0069 1.96305C91.0069 1.88452 91.0069 1.806 91.0069 1.72748C91.0069 1.17783 90.8499 0.785217 90.3002 0.785217Z" fill="black"/>
</g>
<defs>
<clipPath id="clip0">
<rect width="122.73" height="34" fill="white"/>
</clipPath>
</defs>
</svg>
